<svg width="65" height="54" viewBox="0 0 65 54" fill="none" xmlns="http://www.w3.org/2000/svg">
<path fill-rule="evenodd" clip-rule="evenodd" d="M23.4971 0.481221C9.65831 9.36863 1.97028 19.7129 0.432937 31.5139C-1.96036 49.8853 14.4688 58.8775 22.7933 50.798C31.1177 42.7185 26.1277 32.4634 20.1 29.6602C14.0722 26.8568 10.386 27.8332 11.029 24.0871C11.672 20.3412 20.2477 9.95503 27.7818 5.11809C28.2816 4.69304 28.4718 3.86829 27.9906 3.24256C27.6739 2.83111 27.053 2.02409 26.1277 0.821465C25.3186 -0.23018 24.5435 -0.190815 23.4971 0.481221Z" fill="#D63484"/>
<path fill-rule="evenodd" clip-rule="evenodd" d="M59.9286 0.481221C46.09 9.36863 38.402 19.7129 36.8646 31.5139C34.4714 49.8853 50.9005 58.8775 59.225 50.798C67.5495 42.7185 62.5594 32.4634 56.5317 29.6602C50.5039 26.8568 46.8176 27.8332 47.4608 24.0871C48.1038 20.3412 56.6794 9.95503 64.2135 5.11809C64.7134 4.69304 64.9036 3.86829 64.4221 3.24256C64.1057 2.83111 63.4847 2.02409 62.5594 0.821465C61.7503 -0.23018 60.9752 -0.190815 59.9286 0.481221Z" fill="#D63484"/>
</svg>
