<svg width="20" height="18" viewBox="0 0 20 18" fill="none" xmlns="http://www.w3.org/2000/svg">
<path fill-rule="evenodd" clip-rule="evenodd" d="M5.25004 3.63305V2.46305C5.25018 2.04408 5.40063 1.63905 5.67405 1.32159C5.94747 1.00413 6.32571 0.795301 6.74004 0.733053L7.96004 0.550053C9.31253 0.347899 10.6876 0.347899 12.04 0.550053L13.26 0.733053C13.6744 0.795301 14.0526 1.00413 14.326 1.32159C14.5995 1.63905 14.7499 2.04408 14.75 2.46305V3.63305L16.464 3.77105C17.1017 3.82257 17.7038 4.08642 18.1738 4.52041C18.6439 4.95441 18.9549 5.53348 19.057 6.16505C19.5228 9.03763 19.5228 11.9665 19.057 14.8391C18.9549 15.4706 18.6439 16.0497 18.1738 16.4837C17.7038 16.9177 17.1017 17.1815 16.464 17.2331L14.592 17.3831C11.5357 17.6301 8.46439 17.6301 5.40804 17.3831L3.53604 17.2331C2.89834 17.1815 2.29633 16.9177 1.82626 16.4837C1.35619 16.0497 1.04521 15.4706 0.943041 14.8391C0.47732 11.9665 0.47732 9.03763 0.943041 6.16505C1.04541 5.53367 1.35648 4.95482 1.82653 4.52102C2.29658 4.08723 2.89848 3.82352 3.53604 3.77205L5.25004 3.63305ZM8.18304 2.03305C9.38769 1.85312 10.6124 1.85312 11.817 2.03305L13.037 2.21605C13.0962 2.22491 13.1503 2.25471 13.1894 2.30003C13.2285 2.34536 13.25 2.4032 13.25 2.46305V3.52805C11.0851 3.40441 8.91494 3.40441 6.75004 3.52805V2.46205C6.7501 2.4022 6.77163 2.34436 6.81071 2.29903C6.8498 2.25371 6.90385 2.22391 6.96304 2.21505L8.18304 2.03305ZM5.52904 5.11505C8.50504 4.87505 11.495 4.87505 14.471 5.11505L16.343 5.26705C16.6464 5.29133 16.9328 5.41664 17.1566 5.62295C17.3803 5.82927 17.5283 6.10465 17.577 6.40505C17.639 6.78972 17.6924 7.17572 17.737 7.56305C15.3299 8.74784 12.6829 9.36398 10 9.36398C7.31717 9.36398 4.67013 8.74784 2.26304 7.56305C2.30704 7.17639 2.36037 6.79039 2.42304 6.40505C2.47175 6.10465 2.6198 5.82927 2.84352 5.62295C3.06724 5.41664 3.35369 5.29133 3.65704 5.26705L5.52904 5.11505ZM2.12904 9.15905C4.60092 10.2827 7.28475 10.8641 10 10.8641C12.7153 10.8641 15.3992 10.2827 17.871 9.15905C17.9668 10.9777 17.8683 12.8013 17.577 14.5991C17.5285 14.8996 17.3806 15.1753 17.1568 15.3818C16.9331 15.5883 16.6465 15.7137 16.343 15.7381L14.471 15.8881C11.495 16.1281 8.50504 16.1281 5.52904 15.8881L3.65704 15.7381C3.35354 15.7137 3.06698 15.5883 2.84325 15.3818C2.61951 15.1753 2.47154 14.8996 2.42304 14.5991C2.13204 12.7991 2.03304 10.9751 2.12904 9.15905Z" fill="#191A19"/>
</svg>
