<?xml version="1.0" encoding="UTF-8"?>
<svg version="1.1" xmlns="http://www.w3.org/2000/svg" width="100" height="94">
<path d="M0 0 C0.66 0 1.32 0 2 0 C1.855625 0.66 1.71125 1.32 1.5625 2 C-1.44338392 18.03138091 3.82116538 33.89781061 12.9375 47.328125 C17.88134009 53.73264512 23.318611 60.36840481 30 65 C30.99 63.35 31.98 61.7 33 60 C36.28421615 62.66601076 37.32390902 65.84083295 38.75 69.75 C39.19859375 70.94109375 39.6471875 72.1321875 40.109375 73.359375 C41.07794759 77.31862786 40.83234427 80.04128944 40 84 C31.55951236 84.64057272 24.74725424 79.26278894 18.25 74.3125 C16 72 16 72 16 68 C18.64 68.66 21.28 69.32 24 70 C23.45472656 69.44054687 22.90945312 68.88109375 22.34765625 68.3046875 C8.43596878 53.51311553 -2.72548112 34.34050558 -3.4375 13.5625 C-3.23321762 8.7496071 -1.80088799 4.43790255 0 0 Z " fill="#C52373" transform="translate(32,5)"/>
<path d="M0 0 C3.28421615 2.66601076 4.32390902 5.84083295 5.75 9.75 C6.19859375 10.94109375 6.6471875 12.1321875 7.109375 13.359375 C8.07794759 17.31862786 7.83234427 20.04128944 7 24 C0.89357521 24.78287497 -3.00459579 22.10825151 -8 19 C-8 18.34 -8 17.68 -8 17 C-6.68 16.67 -5.36 16.34 -4 16 C-4.66 14.35 -5.32 12.7 -6 11 C-4.35 11.33 -2.7 11.66 -1 12 C-1 11.34 -1 10.68 -1 10 C-2.32 9.34 -3.64 8.68 -5 8 C-3.88213958 4.64641875 -2.25245881 2.68841859 0 0 Z " fill="#D15699" transform="translate(65,65)"/>
<path d="M0 0 C1.4800841 0.11362262 2.95910074 0.24122908 4.4375 0.375 C5.26121094 0.44460937 6.08492187 0.51421875 6.93359375 0.5859375 C7.95646484 0.79089844 7.95646484 0.79089844 9 1 C9.33 1.66 9.66 2.32 10 3 C9.67 3.66 9.34 4.32 9 5 C11.475 5.99 11.475 5.99 14 7 C13.67 7.99 13.34 8.98 13 10 C11.68 9.67 10.36 9.34 9 9 C9 9.99 9 10.98 9 12 C9.66 12.33 10.32 12.66 11 13 C7.9375 14.375 7.9375 14.375 4 15 C1.13485213 13.49552081 -1.09975561 11.62222174 -3 9 C-3 7.68 -3 6.36 -3 5 C-0.36 5.66 2.28 6.32 5 7 C4.175 6.21625 3.35 5.4325 2.5 4.625 C0 2 0 2 0 0 Z " fill="#D53085" transform="translate(51,68)"/>
<path d="M0 0 C2.475 0.99 2.475 0.99 5 2 C5 2.99 5 3.98 5 5 C6.32 5.66 7.64 6.32 9 7 C9 9.31 9 11.62 9 14 C5.31145641 13.29066469 2.21776055 11.93065633 -1 10 C-1.875 7.8125 -1.875 7.8125 -2 6 C0.475 6.495 0.475 6.495 3 7 C3 6.34 3 5.68 3 5 C1.68 4.34 0.36 3.68 -1 3 C-0.67 2.01 -0.34 1.02 0 0 Z " fill="#D13B87" transform="translate(61,70)"/>
<path d="M0 0 C0.66 0 1.32 0 2 0 C1.855625 0.66 1.71125 1.32 1.5625 2 C0.0979217 9.81108428 0.16190071 15.28250092 2 23 C2.33913848 24.66549512 2.67407729 26.33186833 3 28 C2.34 27.67 1.68 27.34 1 27 C0.34 27.66 -0.32 28.32 -1 29 C-3.48314483 18.57966007 -4.0804471 10.0553875 0 0 Z " fill="#B92359" transform="translate(32,5)"/>
<path d="M0 0 C1.61949011 2.57213134 2.04408751 3.67669159 1.625 6.75 C1.41875 7.4925 1.2125 8.235 1 9 C-2.96006597 8.44743266 -6.33333392 7.58558533 -10 6 C-10.99 5.67 -11.98 5.34 -13 5 C-13 4.34 -13 3.68 -13 3 C-7.55106131 1.80123349 -4.77830905 2.08639692 0 5 C0 3.35 0 1.7 0 0 Z " fill="#D2388C" transform="translate(70,79)"/>
<path d="M0 0 C3.70722086 3.19588005 5.40645479 6.38710598 7 11 C6.67 11.99 6.34 12.98 6 14 C5.67 12.68 5.34 11.36 5 10 C4.34 10 3.68 10 3 10 C3.350625 10.598125 3.70125 11.19625 4.0625 11.8125 C5 14 5 14 4 17 C1.36536213 11.15439723 -0.56131481 6.45512034 0 0 Z " fill="#C6206B" transform="translate(32,30)"/>
<path d="M0 0 C0.66 0 1.32 0 2 0 C3.38938077 1.96147874 4.7260411 3.96166576 6 6 C6.66 5.34 7.32 4.68 8 4 C10.475 6.97 10.475 6.97 13 10 C11.02 10.33 9.04 10.66 7 11 C5.83051998 9.35616456 4.6644855 7.70987731 3.5 6.0625 C2.8503125 5.14597656 2.200625 4.22945312 1.53125 3.28515625 C0 1 0 1 0 0 Z " fill="#CA277C" transform="translate(43,58)"/>
<path d="M0 0 C2.35171131 0.59861742 4.6859378 1.26924352 7 2 C7.33 2.66 7.66 3.32 8 4 C7.34 4.66 6.68 5.32 6 6 C5.67 6.66 5.34 7.32 5 8 C2.5 6.25 2.5 6.25 0 4 C0 2.68 0 1.36 0 0 Z " fill="#C82270" transform="translate(48,73)"/>
<path d="M0 0 C2.00993705 3.01490557 2.72623341 5.2149927 3.625 8.6875 C3.88539062 9.68136719 4.14578125 10.67523438 4.4140625 11.69921875 C4.60742188 12.45847656 4.80078125 13.21773437 5 14 C4.34 13.67 3.68 13.34 3 13 C2.34 13.66 1.68 14.32 1 15 C-0.00109515 11.68929162 -0.10356134 8.69915231 -0.0625 5.25 C-0.05347656 4.26515625 -0.04445313 3.2803125 -0.03515625 2.265625 C-0.02355469 1.51796875 -0.01195313 0.7703125 0 0 Z " fill="#BC165B" transform="translate(30,19)"/>
<path d="M0 0 C3.41008054 1.13669351 4.04378221 1.99396636 6.125 4.8125 C6.64320312 5.49957031 7.16140625 6.18664063 7.6953125 6.89453125 C8.97967647 8.96720245 9.56106659 10.61798332 10 13 C6.58841744 11.86280581 5.88145399 10.95657056 4 8 C4 7.34 4 6.68 4 6 C3.34 6 2.68 6 2 6 C1.34 4.02 0.68 2.04 0 0 Z " fill="#DF2987" transform="translate(41,52)"/>
<path d="M0 0 C0.66 0.33 1.32 0.66 2 1 C2.6328125 3.28515625 2.6328125 3.28515625 3.125 6.0625 C3.29257813 6.98160156 3.46015625 7.90070313 3.6328125 8.84765625 C3.75398438 9.55792969 3.87515625 10.26820312 4 11 C3.01 10.67 2.02 10.34 1 10 C0.67 9.01 0.34 8.02 0 7 C-0.66 6.67 -1.32 6.34 -2 6 C-1.125 1.125 -1.125 1.125 0 0 Z " fill="#D33084" transform="translate(65,65)"/>
<path d="M0 0 C0.99 0.33 1.98 0.66 3 1 C3 1.66 3 2.32 3 3 C5.31 3.33 7.62 3.66 10 4 C10.33 5.32 10.66 6.64 11 8 C7.31145641 7.29066469 4.21776055 5.93065633 1 4 C0.125 1.8125 0.125 1.8125 0 0 Z " fill="#F76BBB" transform="translate(59,76)"/>
<path d="M0 0 C2.4375 0.75 2.4375 0.75 5 2 C5.8125 4.125 5.8125 4.125 6 6 C1.25 4.125 1.25 4.125 -1 3 C-0.67 2.01 -0.34 1.02 0 0 Z " fill="#E748A5" transform="translate(61,70)"/>
<path d="M0 0 C0.99 0.33 1.98 0.66 3 1 C3 2.32 3 3.64 3 5 C3.66 5.33 4.32 5.66 5 6 C3.68 6.33 2.36 6.66 1 7 C0 4 0 4 0 0 Z " fill="#DB3390" transform="translate(57,75)"/>
<path d="M0 0 C1.9451 2.91765 2.45276317 4.62537285 3 8 C2.34 8 1.68 8 1 8 C0.67 8.66 0.34 9.32 0 10 C0 6.7 0 3.4 0 0 Z " fill="#CA1158" transform="translate(30,19)"/>
</svg>
