<?xml version="1.0" encoding="UTF-8"?>
<svg version="1.1" xmlns="http://www.w3.org/2000/svg" width="101" height="111">
<path d="M0 0 C0.99 0.495 0.99 0.495 2 1 C1.7026468 14.73231124 -3.72227295 24.3467663 -12 35 C-12.66 35.99 -13.32 36.98 -14 38 C-14.66 38 -15.32 38 -16 38 C-16.33 38.99 -16.66 39.98 -17 41 C-17.66 41 -18.32 41 -19 41 C-19.33 41.99 -19.66 42.98 -20 44 C-20.66 44 -21.32 44 -22 44 C-22 44.66 -22 45.32 -22 46 C-23.98491239 47.64542815 -25.95862786 49.14421909 -28.0625 50.625 C-28.99739258 51.28834351 -28.99739258 51.28834351 -29.95117188 51.96508789 C-38.48114262 57.88312717 -47.72693052 62.37760104 -57 67 C-51.555 66.505 -51.555 66.505 -46 66 C-45.67 67.65 -45.34 69.3 -45 71 C-65.15273775 76.96541787 -65.15273775 76.96541787 -75 76 C-77 74 -77 74 -77.44921875 71.2890625 C-76.85171617 66.91430447 -74.6847547 64.53116177 -71.8125 61.375 C-71.32974609 60.81554687 -70.84699219 60.25609375 -70.34960938 59.6796875 C-67.47782206 56.41086114 -64.49519483 53.61979868 -61 51 C-60 52 -60 52 -59.8125 54.4375 C-60 57 -60 57 -62 59 C-39.83119975 53.99245924 -19.13037964 37.81801138 -7 19 C-6.51144531 18.24460937 -6.02289063 17.48921875 -5.51953125 16.7109375 C-2.27536511 11.32619254 -0.8682195 6.2071215 0 0 Z " fill="#C93D7F" transform="translate(86,12)"/>
<path d="M0 0 C0.66 0.33 1.32 0.66 2 1 C1.7026468 14.73231124 -3.72227295 24.3467663 -12 35 C-12.66 35.99 -13.32 36.98 -14 38 C-14.66 38 -15.32 38 -16 38 C-16.33 38.99 -16.66 39.98 -17 41 C-18.485 41.495 -18.485 41.495 -20 42 C-20.66 41.67 -21.32 41.34 -22 41 C-22 41.66 -22 42.32 -22 43 C-23.26839526 43.50615298 -24.53983102 44.00469099 -25.8125 44.5 C-26.52019531 44.7784375 -27.22789063 45.056875 -27.95703125 45.34375 C-30 46 -30 46 -33 46 C-32.16597656 45.32195313 -31.33195312 44.64390625 -30.47265625 43.9453125 C-16.0035447 32.04479714 -3.31677944 19.17513113 0 0 Z " fill="#C74282" transform="translate(86,12)"/>
<path d="M0 0 C0.99 0 1.98 0 3 0 C2.67 1.32 2.34 2.64 2 4 C2.66 4.33 3.32 4.66 4 5 C3.01 6.485 3.01 6.485 2 8 C2.99 8 3.98 8 5 8 C5 8.66 5 9.32 5 10 C5.66 10 6.32 10 7 10 C7 10.66 7 11.32 7 12 C3.86650268 13.04449911 3.01031744 12.93423645 0 12 C0 12.66 0 13.32 0 14 C0.66 14.33 1.32 14.66 2 15 C-1.28696233 15.79953138 -2.71023192 16.09658936 -6 15 C-6 13.68 -6 12.36 -6 11 C-4.68 11.33 -3.36 11.66 -2 12 C-2.33 10.02 -2.66 8.04 -3 6 C-2.01 6 -1.02 6 0 6 C-0.185625 5.38125 -0.37125 4.7625 -0.5625 4.125 C-1 2 -1 2 0 0 Z " fill="#D73888" transform="translate(18,70)"/>
<path d="M0 0 C0.66 0.33 1.32 0.66 2 1 C2.125 3.375 2.125 3.375 2 6 C1.34 6.66 0.68 7.32 0 8 C1.98 7.67 3.96 7.34 6 7 C6 7.66 6 8.32 6 9 C2.38026598 10.31626692 -0.09567131 11 -4 11 C-3.67 9.68 -3.34 8.36 -3 7 C-3.99 6.67 -4.98 6.34 -6 6 C-4.02 4.02 -2.04 2.04 0 0 Z " fill="#C64884" transform="translate(24,63)"/>
<path d="M0 0 C0.33 0.66 0.66 1.32 1 2 C1.66 2.33 2.32 2.66 3 3 C0.39939496 4.34070318 -2.20504916 5.67273354 -4.8125 7 C-5.55048828 7.3815625 -6.28847656 7.763125 -7.04882812 8.15625 C-7.76103516 8.5171875 -8.47324219 8.878125 -9.20703125 9.25 C-9.8616333 9.58515625 -10.51623535 9.9203125 -11.19067383 10.265625 C-13 11 -13 11 -16 11 C-16 10.34 -16 9.68 -16 9 C-15.34 9 -14.68 9 -14 9 C-12.9254644 7.2236068 -12.9254644 7.2236068 -13 6 C-13.33 5.01 -13.66 4.02 -14 3 C-12.68 3.33 -11.36 3.66 -10 4 C-10 4.99 -10 5.98 -10 7 C-8.51515588 6.60404157 -7.0371169 6.18249294 -5.5625 5.75 C-4.73878906 5.51796875 -3.91507813 5.2859375 -3.06640625 5.046875 C-0.80004532 4.19229321 -0.80004532 4.19229321 -0.21484375 1.890625 C-0.14394531 1.26671875 -0.07304688 0.6428125 0 0 Z " fill="#BD427F" transform="translate(45,66)"/>
<path d="M0 0 C0.66 0.33 1.32 0.66 2 1 C1.22095672 12.52164009 1.22095672 12.52164009 -1 18 C-1.99 17.34 -2.98 16.68 -4 16 C-3.71125 15.21625 -3.4225 14.4325 -3.125 13.625 C-1.73239716 9.1377242 -0.85728019 4.614721 0 0 Z " fill="#BA5373" transform="translate(86,12)"/>
<path d="M0 0 C-0.61538462 6.52307692 -0.61538462 6.52307692 -2.5625 8.9375 C-3.036875 9.288125 -3.51125 9.63875 -4 10 C-4 9.01 -4 8.02 -4 7 C-4.66 6.67 -5.32 6.34 -6 6 C-2.61538462 0 -2.61538462 0 0 0 Z " fill="#C24A7F" transform="translate(84,27)"/>
<path d="M0 0 C0.66 0.99 1.32 1.98 2 3 C1.34 3.66 0.68 4.32 0 5 C-2.625 4.625 -2.625 4.625 -5 4 C-5 3.01 -5 2.02 -5 1 C-3.35 0.67 -1.7 0.34 0 0 Z " fill="#D1387C" transform="translate(55,58)"/>
</svg>
